<svg xmlns="http://www.w3.org/2000/svg" viewBox="0 0 64 64" role="img" aria-label="SmartSetupUAE">
  <defs>
    <linearGradient id="fbg" x1="0" y1="0" x2="1" y2="1">
      <stop offset="0%" stop-color="#0F766E"/>
      <stop offset="60%" stop-color="#0F433f"/>
      <stop offset="100%" stop-color="#0A2624"/>
    </linearGradient>
    <linearGradient id="fgold" x1="0" y1="0" x2="0" y2="1">
      <stop offset="0%" stop-color="#FCD980"/>
      <stop offset="55%" stop-color="#F0B440"/>
      <stop offset="100%" stop-color="#B45309"/>
    </linearGradient>
    <linearGradient id="fsky" x1="0" y1="0" x2="0" y2="1">
      <stop offset="0%" stop-color="#1A8780" stop-opacity="0"/>
      <stop offset="100%" stop-color="#FCD980" stop-opacity="0.22"/>
    </linearGradient>
  </defs>
  <rect x="2" y="2" width="60" height="60" rx="14" fill="url(#fbg)"/>
  <rect x="2" y="34" width="60" height="28" rx="14" fill="url(#fsky)"/>
  <circle cx="48" cy="15" r="3.2" fill="url(#fgold)"/>
  <g fill="url(#fgold)">
    <path d="M7 54 L7 38 L9.5 34 L12 38 L12 54 Z"/>
    <path d="M16 54 L16 35 C17.5 30 20 27 21.5 25 C23 28 24 32 24 38 L24 54 Z"/>
    <rect x="26" y="40" width="3.6" height="14"/>
    <path d="M32.5 54 L32.5 23 L34 20 L34.6 15 L35.2 20 L36.6 23 L36.6 54 Z"/>
    <path d="M39.5 54 L39.5 31 L41.4 27 L43.3 31 L43.3 54 Z"/>
    <rect x="46" y="36" width="11" height="18" stroke="url(#fgold)" stroke-width="1" fill="none"/>
    <rect x="46" y="36" width="11" height="2.4"/>
    <rect x="46" y="51.6" width="11" height="2.4"/>
  </g>
  <rect x="5" y="56" width="54" height="1.2" fill="url(#fgold)" opacity="0.75"/>
</svg>
